<?xml version="1.0" encoding="UTF-8"?>
<svg id="Layer_1" xmlns="http://www.w3.org/2000/svg" version="1.1" xmlns:xlink="http://www.w3.org/1999/xlink" viewBox="0 0 400 400">
  <!-- Generator: Adobe Illustrator 29.5.1, SVG Export Plug-In . SVG Version: 2.1.0 Build 141)  -->
  <defs>
    <style>
      .st0 {
        fill: url(#linear-gradient2);
      }

      .st1 {
        fill: url(#linear-gradient1);
      }

      .st2 {
        fill: url(#linear-gradient3);
      }

      .st3 {
        display: none;
      }

      .st4 {
        fill: url(#linear-gradient);
      }
    </style>
    <linearGradient id="linear-gradient" x1="110.06" y1="209.18" x2="269.62" y2="209.18" gradientUnits="userSpaceOnUse">
      <stop offset="0" stop-color="#1b5dc1"/>
      <stop offset="1" stop-color="#2e3192"/>
    </linearGradient>
    <linearGradient id="linear-gradient1" x1="134.99" y1="203.55" x2="197.77" y2="203.55" gradientUnits="userSpaceOnUse">
      <stop offset="0" stop-color="#d22bf7"/>
      <stop offset=".16" stop-color="#cb2bf0"/>
      <stop offset=".38" stop-color="#b92bdf"/>
      <stop offset=".64" stop-color="#9b2cc3"/>
      <stop offset=".93" stop-color="#712c9b"/>
      <stop offset="1" stop-color="#662d91"/>
    </linearGradient>
    <linearGradient id="linear-gradient2" x1="134.99" y1="203.55" x2="244.69" y2="203.55" gradientUnits="userSpaceOnUse">
      <stop offset="0" stop-color="#38ca44"/>
      <stop offset="1" stop-color="#5eaf44"/>
    </linearGradient>
    <linearGradient id="linear-gradient3" x1="352.67" y1="49.48" x2="574.6" y2="49.48" gradientUnits="userSpaceOnUse">
      <stop offset="0" stop-color="#1b5dc1"/>
      <stop offset="1" stop-color="#2e3192"/>
    </linearGradient>
  </defs>
  <circle class="st4" cx="189.84" cy="209.18" r="79.78"/>
  <g>
    <path class="st1" d="M197.77,186.8h-9.81v29.59c0,4.67-.39,8.88-1.19,12.65-.78,3.76-2.17,6.99-4.15,9.68-1.99,2.68-4.68,4.74-8.08,6.17-3.38,1.43-7.66,2.14-12.8,2.14s-9.33-.71-12.76-2.14c-3.42-1.43-6.17-3.49-8.25-6.17-2.08-2.69-3.54-5.91-4.42-9.68-.88-3.76-1.32-7.98-1.32-12.65v-29.59h10.25v29.59c0,3.03.2,5.82.61,8.36.4,2.54,1.21,4.73,2.39,6.56,1.2,1.84,2.86,3.27,4.99,4.29,2.11,1.03,4.92,1.54,8.42,1.54s6.3-.51,8.43-1.54c2.13-1.01,3.75-2.44,4.89-4.29,1.14-1.83,1.88-4.02,2.22-6.56.35-2.54.53-5.33.53-8.36v-29.59h-10.81l15.43-26.73,15.43,26.73Z"/>
    <g>
      <path class="st0" d="M197.77,186.8h-9.81v29.59c0,4.67-.39,8.88-1.19,12.65-.78,3.76-2.17,6.99-4.15,9.68-1.99,2.68-4.68,4.74-8.08,6.17-3.38,1.43-7.66,2.14-12.8,2.14s-9.33-.71-12.76-2.14c-3.42-1.43-6.17-3.49-8.25-6.17-2.08-2.69-3.54-5.91-4.42-9.68-.88-3.76-1.32-7.98-1.32-12.65v-29.59h10.25v29.59c0,3.03.2,5.82.61,8.36.4,2.54,1.21,4.73,2.39,6.56,1.2,1.84,2.86,3.27,4.99,4.29,2.11,1.03,4.92,1.54,8.42,1.54s6.3-.51,8.43-1.54c2.13-1.01,3.75-2.44,4.89-4.29,1.14-1.83,1.88-4.02,2.22-6.56.35-2.54.53-5.33.53-8.36v-29.59h-10.81l15.43-26.73,15.43,26.73Z"/>
      <path class="st0" d="M218.16,186.8c3.5,0,6.86.31,10.07.92,3.21.61,6.04,1.71,8.49,3.28,2.45,1.58,4.39,3.69,5.82,6.35,1.43,2.66,2.15,6.03,2.15,10.11,0,3.56-.44,6.55-1.31,8.97-.88,2.42-2.09,4.44-3.63,6.04-1.55,1.61-3.37,2.86-5.47,3.76-2.1.91-4.38,1.58-6.83,2.01-2.45.44-5.02.7-7.7.79-2.69.09-5.37.13-8.05.13v17.86h-10.24v-60.23h16.72ZM221.23,218.93c2.04,0,3.88-.17,5.52-.52,1.63-.35,3.03-.96,4.2-1.83,1.17-.87,2.07-2.03,2.71-3.49.64-1.45.96-3.28.96-5.49s-.45-3.91-1.36-5.27c-.91-1.37-2.09-2.44-3.55-3.23-1.46-.79-3.09-1.32-4.9-1.61-1.81-.29-3.59-.44-5.34-.44h-7.79v21.89h9.54Z"/>
    </g>
  </g>
  <g class="st3">
    <g>
      <path class="st2" d="M395.21,19.36v10.24h-16.11v49.99h-10.24V29.61h-16.2v-10.24h42.55Z"/>
      <path class="st2" d="M403.18,79.6V19.36h10.24v60.23h-10.24Z"/>
      <path class="st2" d="M477.33,79.6l-7.88-43.51-8.58,26.7h-13.13l-8.67-26.7-7.79,43.51h-10.86l10.86-60.23h13.83l9.19,28.63,9.19-28.63h13.83l10.86,60.23h-10.86Z"/>
      <path class="st2" d="M495.71,79.6V19.36h10.24v60.23h-10.24Z"/>
      <path class="st2" d="M544.48,19.45c4.14,0,8.05.79,11.73,2.36,3.68,1.58,6.87,3.72,9.59,6.43,2.71,2.71,4.86,5.91,6.44,9.59,1.58,3.68,2.36,7.59,2.36,11.73s-.8,8.04-2.41,11.69c-1.61,3.65-3.76,6.83-6.48,9.54s-5.91,4.86-9.59,6.43c-3.68,1.58-7.56,2.36-11.64,2.36s-8.05-.79-11.73-2.36c-3.68-1.58-6.87-3.72-9.59-6.43s-4.86-5.89-6.43-9.54c-1.58-3.65-2.36-7.54-2.36-11.69s.77-8.13,2.32-11.77c1.55-3.65,3.68-6.83,6.39-9.54,2.71-2.71,5.91-4.86,9.59-6.43,3.68-1.58,7.62-2.36,11.82-2.36ZM544.48,69.35c2.68,0,5.24-.51,7.66-1.53,2.42-1.02,4.54-2.43,6.35-4.24,1.81-1.81,3.24-3.9,4.29-6.29,1.05-2.39,1.58-4.95,1.58-7.69s-.53-5.23-1.58-7.64c-1.05-2.42-2.47-4.54-4.25-6.38s-3.88-3.28-6.3-4.32c-2.42-1.05-5.01-1.57-7.75-1.57s-5.33.52-7.75,1.57c-2.42,1.05-4.52,2.47-6.3,4.28-1.78,1.81-3.2,3.92-4.25,6.33-1.05,2.42-1.58,4.99-1.58,7.73s.53,5.3,1.58,7.69c1.05,2.39,2.46,4.48,4.25,6.29,1.78,1.81,3.88,3.22,6.3,4.24,2.42,1.02,5,1.53,7.75,1.53Z"/>
    </g>
  </g>
</svg>